<?xml version="1.0" encoding="utf-8"?>
<!-- Generator: Adobe Illustrator 16.0.0, SVG Export Plug-In . SVG Version: 6.00 Build 0)  -->
<!DOCTYPE svg PUBLIC "-//W3C//DTD SVG 1.1//EN" "http://www.w3.org/Graphics/SVG/1.1/DTD/svg11.dtd">
<svg version="1.1" id="Layer_1" xmlns="http://www.w3.org/2000/svg" xmlns:xlink="http://www.w3.org/1999/xlink" x="0px" y="0px"
	 width="840px" height="840px" viewBox="218 -20 840 840" enable-background="new 218 -20 840 840" xml:space="preserve">
<g>
	<g>
		<g>
			<path fill="#798096" d="M538.832,620.437h16.817v43.084c0,6.926,5.612,12.539,12.539,12.539c6.926,0,12.539-5.613,12.539-12.539
				v-43.084h19.504v43.084c0,6.926,5.613,12.539,12.539,12.539c6.927,0,12.539-5.613,12.539-12.539v-43.084h19.503v43.084
				c0,6.926,5.613,12.539,12.539,12.539s12.539-5.613,12.539-12.539v-43.084h19.504v43.084c0,6.926,5.613,12.539,12.539,12.539
				c6.928,0,12.539-5.613,12.539-12.539v-43.084h14.949c6.926,0,12.539-5.614,12.539-12.539v-31.521h30.93
				c20.74,0,37.615-16.873,37.615-37.615v-33.866h31.521c6.926,0,12.539-5.613,12.539-12.539v-14.412h45.488
				c6.926,0,12.539-5.614,12.539-12.539s-5.613-12.539-12.539-12.539h-45.488v-19.505h45.488c6.926,0,12.539-5.614,12.539-12.539
				s-5.613-12.539-12.539-12.539h-45.488V388.78h45.488c6.926,0,12.539-5.614,12.539-12.539s-5.613-12.539-12.539-12.539h-45.488
				v-19.505h45.488c6.926,0,12.539-5.614,12.539-12.539s-5.613-12.539-12.539-12.539h-45.488v-17.352
				c0-6.925-5.613-12.539-12.539-12.539h-31.521v-27.99c0-20.742-16.875-37.616-37.615-37.616h-30.93v-34.458
				c0-6.925-5.613-12.539-12.539-12.539h-14.949v-43.087c0-6.925-5.611-12.539-12.539-12.539c-6.926,0-12.539,5.614-12.539,12.539
				v43.084h-19.504v-43.084c0-6.925-5.613-12.539-12.539-12.539s-12.539,5.614-12.539,12.539v43.084h-19.503v-43.084
				c0-6.925-5.612-12.539-12.539-12.539c-6.926,0-12.539,5.614-12.539,12.539v43.084h-19.504v-43.084
				c0-6.925-5.613-12.539-12.539-12.539c-6.927,0-12.539,5.614-12.539,12.539v43.084h-16.817c-6.927,0-12.539,5.614-12.539,12.539
				v34.458h-30.93c-20.741,0-37.617,16.874-37.617,37.616v27.991h-31.521c-6.927,0-12.539,5.614-12.539,12.539v17.352H370.07
				c-6.926,0-12.539,5.614-12.539,12.539s5.613,12.539,12.539,12.539h43.621v19.505H370.07c-6.926,0-12.539,5.614-12.539,12.539
				s5.613,12.539,12.539,12.539h43.621v19.503H370.07c-6.926,0-12.539,5.614-12.539,12.539s5.613,12.539,12.539,12.539h43.621
				v19.505H370.07c-6.926,0-12.539,5.614-12.539,12.539s5.613,12.539,12.539,12.539h43.621v14.412
				c0,6.925,5.612,12.539,12.539,12.539h31.521v33.869c0,20.742,16.875,37.615,37.615,37.615h30.93v31.521
				C526.292,614.822,531.905,620.437,538.832,620.437z M457.749,479.816h-18.982V314.306h18.982V479.816z M716.883,595.36H551.371
				v-18.981h165.512V595.36z M716.883,201.702v18.979H551.371v-18.979H716.883z M495.364,551.301
				c-6.914,0-12.539-5.624-12.539-12.539v-46.406V301.766v-40.528c0-6.914,5.624-12.539,12.539-12.539h277.525
				c6.914,0,12.539,5.623,12.539,12.539v40.528v38.452c0,6.925,5.613,12.539,12.539,12.539c6.928,0,12.539-5.614,12.539-12.539
				v-25.914h18.982v165.513h-18.982v-99.474c0-6.925-5.611-12.539-12.539-12.539c-6.926,0-12.539,5.614-12.539,12.539v112.013
				v46.406c0,6.914-5.623,12.539-12.539,12.539h-43.467h-190.59H495.364z"/>
			<path fill="#798096" d="M760.35,513.685v-227.37c0-6.925-5.611-12.539-12.539-12.539h-227.37
				c-6.927,0-12.539,5.614-12.539,12.539v227.37c0,6.926,5.612,12.539,12.539,12.539h227.37
				C754.738,526.224,760.35,520.61,760.35,513.685z M735.271,501.146H532.98V298.854h202.292V501.146z"/>
			<path fill="#798096" d="M357.997,81.116c0-20.435-16.624-37.06-37.058-37.06c-20.434,0-37.059,16.625-37.059,37.06
				s16.625,37.058,37.059,37.058C341.374,118.174,357.997,101.551,357.997,81.116z M320.939,93.098
				c-6.607,0-11.982-5.375-11.982-11.98c0-6.608,5.375-11.983,11.982-11.983c6.605,0,11.98,5.375,11.98,11.983
				C332.92,87.723,327.545,93.098,320.939,93.098z"/>
			<path fill="#798096" d="M956.879,118.174c20.436,0,37.059-16.625,37.059-37.058c0-20.435-16.623-37.06-37.059-37.06
				c-20.434,0-37.059,16.625-37.059,37.06S936.445,118.174,956.879,118.174z M956.879,69.135c6.605,0,11.98,5.375,11.98,11.983
				s-5.375,11.98-11.98,11.98c-6.607,0-11.982-5.375-11.982-11.98C944.898,74.51,950.273,69.135,956.879,69.135z"/>
			<path fill="#798096" d="M956.879,756.712c20.436,0,37.059-16.625,37.059-37.06s-16.623-37.06-37.059-37.06
				c-20.434,0-37.059,16.625-37.059,37.06S936.445,756.712,956.879,756.712z M956.879,707.673c6.605,0,11.98,5.375,11.98,11.982
				s-5.375,11.982-11.98,11.982c-6.607,0-11.982-5.375-11.982-11.982C944.898,713.044,950.273,707.673,956.879,707.673z"/>
			<path fill="#798096" d="M962.105-0.001H842.027c-6.928,0-12.539,5.614-12.539,12.539V42.11c0,4.148-3.375,7.523-7.523,7.523
				H490.348c-4.148,0-7.523-3.375-7.523-7.523V12.538c0-6.925-5.612-12.539-12.539-12.539H313.891
				C272.045-0.001,238,34.044,238,75.893v648.214c0,41.848,34.045,75.893,75.891,75.893h156.395c6.927,0,12.539-5.614,12.539-12.539
				v-29.572c0-4.148,3.375-7.523,7.523-7.523h35.986c6.927,0,12.539-5.613,12.539-12.539c0-6.925-5.612-12.539-12.539-12.539
				h-35.986c-17.975,0-32.602,14.625-32.602,32.602v17.033H313.891c-28.02,0-50.814-22.795-50.814-50.815V75.893
				c0-28.02,22.795-50.815,50.814-50.815h143.856V42.11c0,17.975,14.625,32.602,32.602,32.602h331.615
				c17.975,0,32.602-14.625,32.602-32.602V25.077h107.539c28.02,0,50.814,22.795,50.814,50.815v172.807h-31.52
				c-6.926,0-12.539,5.614-12.539,12.539v277.524c0,6.926,5.613,12.539,12.539,12.539h31.52v172.805
				c0,28.021-22.795,50.816-50.814,50.816H854.564V757.89c0-17.975-14.625-32.602-32.602-32.602h-253.83
				c-6.927,0-12.539,5.614-12.539,12.539s5.612,12.539,12.539,12.539h253.832c4.15,0,7.523,3.375,7.523,7.523v29.572
				c0,6.925,5.613,12.539,12.539,12.539h120.078c41.848,0,75.895-34.046,75.895-75.895V538.763V261.236V75.893
				C1037.996,34.044,1003.949-0.001,962.105-0.001z M1012.918,526.224h-18.979V273.775h18.979V526.224z"/>
			<path fill="#798096" d="M567.231,344.23h135.656c6.928,0,12.539-5.614,12.539-12.539s-5.611-12.539-12.539-12.539H567.231
				c-6.926,0-12.539,5.614-12.539,12.539S560.306,344.23,567.231,344.23z"/>
			<path fill="#798096" d="M567.231,481.028h135.656c6.928,0,12.539-5.613,12.539-12.539c0-6.925-5.611-12.539-12.539-12.539
				H567.231c-6.926,0-12.539,5.614-12.539,12.539C554.692,475.415,560.306,481.028,567.231,481.028z"/>
			<path fill="#798096" d="M567.231,435.429h135.656c6.928,0,12.539-5.614,12.539-12.539s-5.611-12.539-12.539-12.539H567.231
				c-6.926,0-12.539,5.614-12.539,12.539C554.692,429.816,560.306,435.429,567.231,435.429z"/>
			<path fill="#798096" d="M567.231,389.83h135.656c6.928,0,12.539-5.614,12.539-12.539s-5.611-12.539-12.539-12.539H567.231
				c-6.926,0-12.539,5.614-12.539,12.539S560.306,389.83,567.231,389.83z"/>
			<path fill="#798096" d="M314.048,536.199h-0.034c-6.927,0-12.521,5.614-12.521,12.539s5.631,12.539,12.558,12.539
				c6.926,0,12.539-5.614,12.539-12.539S320.975,536.199,314.048,536.199z"/>
			<path fill="#798096" d="M314.048,672.997h-0.034c-6.927,0-12.521,5.614-12.521,12.539c0,6.926,5.631,12.539,12.558,12.539
				c6.926,0,12.539-5.613,12.539-12.539C326.586,678.611,320.975,672.997,314.048,672.997z"/>
			<path fill="#798096" d="M314.048,627.399h-0.034c-6.927,0-12.521,5.613-12.521,12.539c0,6.925,5.631,12.539,12.558,12.539
				c6.926,0,12.539-5.614,12.539-12.539C326.586,633.013,320.975,627.399,314.048,627.399z"/>
			<path fill="#798096" d="M314.048,581.799h-0.034c-6.927,0-12.521,5.614-12.521,12.539s5.631,12.539,12.558,12.539
				c6.926,0,12.539-5.614,12.539-12.539C326.589,587.413,320.975,581.799,314.048,581.799z"/>
			<path fill="#798096" d="M314.048,143.854h-0.034c-6.927,0-12.521,5.614-12.521,12.539c0,6.925,5.631,12.539,12.558,12.539
				c6.926,0,12.539-5.614,12.539-12.539C326.589,149.468,320.975,143.854,314.048,143.854z"/>
			<path fill="#798096" d="M314.048,280.652h-0.034c-6.927,0-12.521,5.614-12.521,12.539c0,6.925,5.631,12.539,12.558,12.539
				c6.926,0,12.539-5.614,12.539-12.539C326.586,286.266,320.975,280.652,314.048,280.652z"/>
			<path fill="#798096" d="M314.048,235.052h-0.034c-6.927,0-12.521,5.614-12.521,12.539c0,6.925,5.631,12.539,12.558,12.539
				c6.926,0,12.539-5.614,12.539-12.539C326.586,240.666,320.975,235.052,314.048,235.052z"/>
			<path fill="#798096" d="M314.048,189.454h-0.034c-6.927,0-12.521,5.614-12.521,12.539c0,6.925,5.631,12.539,12.558,12.539
				c6.926,0,12.539-5.614,12.539-12.539C326.586,195.068,320.975,189.454,314.048,189.454z"/>
			<path fill="#798096" d="M362.917,741.479c6.926,0,12.539-5.633,12.539-12.558s-5.613-12.539-12.539-12.539
				c-6.925,0-12.539,5.614-12.539,12.539v0.034C350.378,735.882,355.992,741.479,362.917,741.479z"/>
			<path fill="#798096" d="M395.978,728.921v0.034c0,6.925,5.612,12.521,12.539,12.521s12.539-5.633,12.539-12.558
				s-5.612-12.539-12.539-12.539C401.59,716.382,395.978,721.996,395.978,728.921z"/>
		</g>
	</g>
</g>
</svg>
