<?xml version="1.0" encoding="utf-8"?>
<!-- Generator: Adobe Illustrator 16.0.0, SVG Export Plug-In . SVG Version: 6.00 Build 0)  -->
<!DOCTYPE svg PUBLIC "-//W3C//DTD SVG 1.1//EN" "http://www.w3.org/Graphics/SVG/1.1/DTD/svg11.dtd">
<svg version="1.1" id="Layer_1" xmlns="http://www.w3.org/2000/svg" xmlns:xlink="http://www.w3.org/1999/xlink" x="0px" y="0px"
	 width="840px" height="840px" viewBox="220 -20 840 840" enable-background="new 220 -20 840 840" xml:space="preserve">
<g>
	<g>
		<g>
			<path fill="#798096" d="M1026.552,252.631c6.978,0,12.631-5.656,12.631-12.631V88.675c0-24.42-19.868-44.291-44.29-44.291H973.5
				V12.631C973.5,5.655,967.847,0,960.869,0H681.291c-6.979,0-12.632,5.656-12.632,12.631v31.753H285.108
				c-24.42,0-44.291,19.869-44.291,44.291v33.044v279.578v91.209v202.105v61.095c0,24.425,19.87,44.294,44.291,44.294h709.781
				c24.424,0,44.291-19.869,44.291-44.291V278.991c0-6.977-5.653-12.631-12.631-12.631c-6.979,0-12.632,5.656-12.632,12.631v476.717
				c0,10.492-8.536,19.028-19.028,19.028H285.108c-10.491,0-19.028-8.536-19.028-19.028v-48.463h31.753
				c6.977,0,12.631-5.656,12.631-12.631V492.51c0-6.977-5.656-12.632-12.631-12.632H266.08v-65.946h31.753
				c6.977,0,12.631-5.656,12.631-12.632V121.719c0-6.977-5.656-12.631-12.631-12.631H266.08V88.675
				c0-10.49,8.536-19.028,19.028-19.028h396.178h279.579h34.025c10.49,0,19.028,8.536,19.028,19.028V240
				C1013.92,246.977,1019.573,252.631,1026.552,252.631z M285.202,505.141v176.842H266.08V505.141H285.202z M285.202,134.352
				v254.315H266.08V134.352H285.202z M948.236,44.384H693.92V25.263h254.316V44.384z"/>
			<path fill="#798096" d="M973.498,121.72c0-6.977-5.652-12.631-12.631-12.631H681.289c-6.979,0-12.631,5.656-12.631,12.631
				v279.579c0,6.977,5.652,12.631,12.631,12.631h279.578c6.979,0,12.631-5.656,12.631-12.631V121.72z M948.236,388.667H693.92
				V134.352h254.316V388.667z"/>
			<path fill="#798096" d="M709.394,302.245c0,6.977,5.655,12.632,12.632,12.632h16.524v16.526c0,6.977,5.655,12.631,12.632,12.631
				h15.157v15.158c0,6.977,5.653,12.631,12.632,12.631c6.978,0,12.631-5.656,12.631-12.631v-15.158h16.842v15.158
				c0,6.977,5.653,12.631,12.632,12.631c6.978,0,12.631-5.656,12.631-12.631v-15.158h16.842v15.158
				c0,6.977,5.653,12.631,12.632,12.631c6.978,0,12.631-5.656,12.631-12.631v-15.158h15.158c6.978,0,12.631-5.656,12.631-12.631
				v-16.526h16.526c6.979,0,12.632-5.656,12.632-12.632c0-6.975-5.653-12.631-12.632-12.631H903.6v-16.842h16.526
				c6.979,0,12.632-5.656,12.632-12.631c0-6.977-5.653-12.631-12.632-12.631H903.6v-16.842h16.526
				c6.979,0,12.632-5.656,12.632-12.631c0-6.977-5.653-12.631-12.632-12.631H903.6v-13.791c0-6.977-5.654-12.631-12.631-12.631
				h-15.158v-17.891c0-6.977-5.653-12.631-12.631-12.631c-6.979,0-12.632,5.656-12.632,12.631v17.894h-16.842v-17.894
				c0-6.977-5.653-12.631-12.631-12.631c-6.979,0-12.632,5.656-12.632,12.631v17.894h-16.842v-17.894
				c0-6.977-5.654-12.631-12.631-12.631c-6.979,0-12.632,5.656-12.632,12.631v17.894h-15.157c-6.979,0-12.632,5.656-12.632,12.631
				v13.791h-16.524c-6.979,0-12.632,5.656-12.632,12.631c0,6.977,5.655,12.631,12.632,12.631h16.524v16.842h-16.524
				c-6.979,0-12.632,5.656-12.632,12.631c0,6.977,5.655,12.631,12.632,12.631h16.524v16.842h-16.524v-0.001
				C715.049,289.614,709.394,295.269,709.394,302.245z M763.814,204.245h114.526v114.526H763.814V204.245z"/>
			<path fill="#798096" d="M960.867,575.877c6.979,0,12.631-5.656,12.631-12.632v-70.737c0-6.977-5.652-12.631-12.631-12.631
				h-38.328v-13.098c0-6.977-5.653-12.631-12.631-12.631c-6.979,0-12.632,5.656-12.632,12.631v13.098h-285.04
				c-6.977,0-12.632,5.656-12.632,12.631c0,6.977,5.656,12.631,12.632,12.631h285.04v45.474H515.825v-45.472h57.672
				c6.977,0,12.631-5.656,12.631-12.631c0-6.977-5.656-12.632-12.631-12.632h-57.672v-13.097c0-6.977-5.656-12.631-12.632-12.631
				c-6.977,0-12.631,5.656-12.631,12.631v13.097h-38.326c-6.977,0-12.632,5.656-12.632,12.632v70.737
				c0,6.977,5.656,12.631,12.632,12.631h38.326v35.369h-38.326c-6.977,0-12.632,5.656-12.632,12.631v70.737
				c0,6.977,5.656,12.632,12.632,12.632h38.326V719.4c0,6.977,5.656,12.631,12.631,12.631c6.977,0,12.632-5.656,12.632-12.631
				v-12.153h285.042c6.979,0,12.631-5.656,12.631-12.632c0-6.977-5.654-12.631-12.631-12.631H515.825v-45.474h381.451v45.474
				h-57.672c-6.978,0-12.631,5.656-12.631,12.631c0,6.977,5.653,12.632,12.631,12.632h57.672V719.4
				c0,6.977,5.653,12.631,12.632,12.631c6.978,0,12.631-5.656,12.631-12.631v-12.153h38.328c6.979,0,12.631-5.656,12.631-12.632
				v-70.737c0-6.977-5.654-12.631-12.631-12.631h-38.328v-35.369L960.867,575.877L960.867,575.877z M922.539,505.141h25.695v45.474
				h-25.695V505.141z M490.561,681.982h-25.693V636.51h25.693V681.982z M490.561,550.614h-25.693v-45.474h25.693V550.614z
				 M897.276,611.245H515.825v-35.368h381.451V611.245z M922.539,636.51h25.695v45.473h-25.695V636.51z"/>
			<path fill="#798096" d="M458.13,401.299c0,6.977,5.656,12.631,12.631,12.631c6.977,0,12.632-5.656,12.632-12.631v-225.86
				c0-6.977-5.656-12.631-12.632-12.631c-6.977,0-12.631,5.656-12.631,12.631V401.299z"/>
			<path fill="#798096" d="M470.763,151.58c6.977,0,12.631-5.656,12.631-12.631V121.72c0-6.977-5.656-12.631-12.631-12.631
				c-6.977,0-12.632,5.656-12.632,12.631v17.228C458.13,145.923,463.786,151.58,470.763,151.58z"/>
			<path fill="#798096" d="M559.284,401.299c0,6.977,5.656,12.631,12.632,12.631c6.977,0,12.631-5.656,12.631-12.631v-225.86
				c0-6.977-5.656-12.631-12.631-12.631c-6.977,0-12.632,5.656-12.632,12.631V401.299z"/>
			<path fill="#798096" d="M571.916,151.58c6.977,0,12.631-5.656,12.631-12.631V121.72c0-6.977-5.656-12.631-12.631-12.631
				c-6.977,0-12.632,5.656-12.632,12.631v17.228C559.284,145.923,564.939,151.58,571.916,151.58z"/>
			<path fill="#798096" d="M521.339,360.211c6.977,0,12.632-5.656,12.632-12.631V121.72c0-6.977-5.656-12.631-12.632-12.631
				c-6.977,0-12.631,5.656-12.631,12.631v225.86C508.708,354.555,514.362,360.211,521.339,360.211z"/>
			<path fill="#798096" d="M508.708,401.299c0,6.977,5.656,12.631,12.631,12.631c6.977,0,12.632-5.656,12.632-12.631V384.07
				c0-6.977-5.656-12.631-12.632-12.631c-6.977,0-12.631,5.656-12.631,12.631V401.299z"/>
			<path fill="#798096" d="M622.492,360.211c6.977,0,12.631-5.656,12.631-12.631V121.72c0-6.977-5.656-12.631-12.631-12.631
				s-12.631,5.656-12.631,12.631v225.86C609.861,354.555,615.518,360.211,622.492,360.211z"/>
			<path fill="#798096" d="M609.861,401.299c0,6.977,5.656,12.631,12.631,12.631s12.631-5.656,12.631-12.631V384.07
				c0-6.977-5.656-12.631-12.631-12.631s-12.631,5.656-12.631,12.631V401.299z"/>
			<path fill="#798096" d="M821.078,222.806c-20.586,0-37.334,16.749-37.334,37.334s16.748,37.334,37.334,37.334
				s37.333-16.749,37.333-37.334C858.409,239.553,841.664,222.806,821.078,222.806z M821.078,272.212
				c-6.656,0-12.07-5.414-12.07-12.07s5.414-12.07,12.07-12.07c6.654,0,12.068,5.414,12.068,12.07
				C833.146,266.797,827.732,272.212,821.078,272.212z"/>
		</g>
	</g>
</g>
</svg>
