<?xml version="1.0" encoding="utf-8"?>
<!-- Generator: Adobe Illustrator 16.0.0, SVG Export Plug-In . SVG Version: 6.00 Build 0)  -->
<!DOCTYPE svg PUBLIC "-//W3C//DTD SVG 1.1//EN" "http://www.w3.org/Graphics/SVG/1.1/DTD/svg11.dtd">
<svg version="1.1" id="Layer_1" xmlns="http://www.w3.org/2000/svg" xmlns:xlink="http://www.w3.org/1999/xlink" x="0px" y="0px"
	 width="840px" height="840px" viewBox="220 -20 840 840" enable-background="new 220 -20 840 840" xml:space="preserve">
<g>
	<g>
		<g>
			<path fill="#798096" d="M323.841,287.62c6.978,0,12.631-5.656,12.631-12.631c0-6.977-5.653-12.631-12.631-12.631h-0.036
				c-6.978,0-12.612,5.656-12.612,12.631C311.192,281.966,316.864,287.62,323.841,287.62z"/>
			<path fill="#798096" d="M323.841,425.432c6.978,0,12.631-5.656,12.631-12.632c0-6.975-5.653-12.631-12.631-12.631h-0.036
				c-6.978,0-12.612,5.656-12.612,12.631C311.192,419.775,316.864,425.432,323.841,425.432z"/>
			<path fill="#798096" d="M323.841,379.495c6.978,0,12.631-5.656,12.631-12.631c0-6.976-5.653-12.632-12.631-12.632h-0.036
				c-6.978,0-12.612,5.656-12.612,12.632C311.192,373.839,316.864,379.495,323.841,379.495z"/>
			<path fill="#798096" d="M323.841,333.558c6.978,0,12.631-5.656,12.631-12.631c0-6.977-5.653-12.632-12.631-12.632h-0.036
				c-6.978,0-12.612,5.656-12.612,12.632C311.192,327.901,316.864,333.558,323.841,333.558z"/>
			<path fill="#798096" d="M323.841,515.107c6.978,0,12.631-5.656,12.631-12.631c0-6.977-5.653-12.631-12.631-12.631h-0.036
				c-6.978,0-12.612,5.656-12.612,12.631S316.864,515.107,323.841,515.107z"/>
			<path fill="#798096" d="M323.841,652.917c6.978,0,12.631-5.656,12.631-12.631c0-6.977-5.653-12.632-12.631-12.632h-0.036
				c-6.978,0-12.612,5.656-12.612,12.632C311.192,647.263,316.864,652.917,323.841,652.917z"/>
			<path fill="#798096" d="M323.841,606.982c6.978,0,12.631-5.656,12.631-12.631c0-6.977-5.653-12.631-12.631-12.631h-0.036
				c-6.978,0-12.612,5.656-12.612,12.631S316.864,606.982,323.841,606.982z"/>
			<path fill="#798096" d="M323.841,561.044c6.978,0,12.631-5.656,12.631-12.632c0-6.977-5.653-12.631-12.631-12.631h-0.036
				c-6.978,0-12.612,5.656-12.612,12.631C311.192,555.389,316.864,561.044,323.841,561.044z"/>
			<path fill="#798096" d="M369.314,376.589h-0.036c-6.979,0-12.613,5.656-12.613,12.632c0,6.977,5.672,12.631,12.65,12.631
				c6.979,0,12.631-5.656,12.631-12.631C381.945,382.245,376.291,376.589,369.314,376.589z"/>
			<path fill="#798096" d="M369.314,330.653h-0.036c-6.979,0-12.613,5.656-12.613,12.631c0,6.976,5.672,12.632,12.65,12.632
				c6.979,0,12.631-5.656,12.631-12.632C381.945,336.308,376.291,330.653,369.314,330.653z"/>
			<path fill="#798096" d="M369.314,284.716h-0.036c-6.979,0-12.613,5.656-12.613,12.631c0,6.977,5.672,12.632,12.65,12.632
				c6.979,0,12.631-5.657,12.631-12.632C381.947,290.372,376.291,284.716,369.314,284.716z"/>
			<path fill="#798096" d="M381.945,616.708c0-6.977-5.653-12.632-12.631-12.632h-0.036c-6.979,0-12.613,5.656-12.613,12.632
				c0,6.977,5.672,12.631,12.65,12.631C376.294,629.339,381.945,623.685,381.945,616.708z"/>
			<path fill="#798096" d="M369.314,558.141h-0.036c-6.979,0-12.613,5.656-12.613,12.631c0,6.977,5.672,12.632,12.65,12.632
				c6.979,0,12.631-5.656,12.631-12.632C381.947,563.797,376.291,558.141,369.314,558.141z"/>
			<path fill="#798096" d="M369.314,512.201h-0.036c-6.979,0-12.613,5.656-12.613,12.632c0,6.975,5.672,12.631,12.65,12.631
				c6.979,0,12.631-5.656,12.631-12.631C381.947,517.857,376.291,512.201,369.314,512.201z"/>
			<path fill="#798096" d="M404.705,710.364c-6.979,0-12.632,5.656-12.632,12.631v0.036c0,6.977,5.653,12.612,12.632,12.612
				c6.978,0,12.631-5.673,12.631-12.649C417.336,716.019,411.682,710.364,404.705,710.364z"/>
			<path fill="#798096" d="M542.514,735.646c6.979,0,12.632-5.673,12.632-12.649s-5.653-12.632-12.632-12.632
				c-6.978,0-12.631,5.656-12.631,12.632v0.036C529.883,730.008,535.539,735.646,542.514,735.646z"/>
			<path fill="#798096" d="M496.578,710.364c-6.979,0-12.631,5.656-12.631,12.631v0.036c0,6.977,5.654,12.612,12.631,12.612
				c6.979,0,12.631-5.673,12.631-12.649C509.209,716.019,503.553,710.364,496.578,710.364z"/>
			<path fill="#798096" d="M450.639,710.364c-6.978,0-12.631,5.656-12.631,12.631v0.036c0,6.977,5.654,12.612,12.631,12.612
				s12.632-5.673,12.632-12.649C463.271,716.019,457.617,710.364,450.639,710.364z"/>
			<path fill="#798096" d="M636.385,710.364c-6.979,0-12.632,5.656-12.632,12.631v0.036c0,6.977,5.653,12.612,12.632,12.612
				c6.978,0,12.631-5.673,12.631-12.649C649.016,716.019,643.359,710.364,636.385,710.364z"/>
			<path fill="#798096" d="M774.195,735.646c6.979,0,12.631-5.673,12.631-12.649s-5.652-12.632-12.631-12.632
				s-12.631,5.656-12.631,12.632v0.036C761.563,730.008,767.217,735.646,774.195,735.646z"/>
			<path fill="#798096" d="M728.256,735.646c6.979,0,12.632-5.673,12.632-12.649s-5.653-12.632-12.632-12.632
				c-6.978,0-12.631,5.656-12.631,12.632v0.036C715.625,730.008,721.279,735.646,728.256,735.646z"/>
			<path fill="#798096" d="M682.318,735.646c6.979,0,12.632-5.673,12.632-12.649s-5.655-12.632-12.632-12.632
				c-6.978,0-12.631,5.656-12.631,12.632v0.036C669.688,730.008,675.342,735.646,682.318,735.646z"/>
			<path fill="#798096" d="M518.936,690.174c6.979,0,12.632-5.674,12.632-12.65s-5.653-12.631-12.632-12.631
				c-6.978,0-12.631,5.656-12.631,12.631v0.036C506.305,684.534,511.959,690.174,518.936,690.174z"/>
			<path fill="#798096" d="M460.367,677.521v0.036c0,6.977,5.654,12.612,12.631,12.612s12.632-5.673,12.632-12.649
				s-5.655-12.632-12.632-12.632S460.367,670.547,460.367,677.521z"/>
			<path fill="#798096" d="M439.692,677.521c0-6.977-5.653-12.631-12.632-12.631c-6.978,0-12.631,5.656-12.631,12.631v0.036
				c0,6.977,5.653,12.612,12.631,12.612C434.037,690.17,439.692,684.498,439.692,677.521z"/>
			<path fill="#798096" d="M750.615,690.174c6.979,0,12.632-5.674,12.632-12.65s-5.653-12.631-12.632-12.631
				c-6.978,0-12.631,5.656-12.631,12.631v0.036C737.984,684.534,743.638,690.174,750.615,690.174z"/>
			<path fill="#798096" d="M704.677,690.174c6.978,0,12.631-5.674,12.631-12.65s-5.653-12.631-12.631-12.631
				c-6.979,0-12.632,5.656-12.632,12.631v0.036C692.045,684.534,697.701,690.174,704.677,690.174z"/>
			<path fill="#798096" d="M658.74,690.174c6.979,0,12.632-5.674,12.632-12.65s-5.653-12.631-12.632-12.631
				c-6.978,0-12.631,5.656-12.631,12.631v0.036C646.109,684.534,651.763,690.174,658.74,690.174z"/>
			<path fill="#798096" d="M807.269,328.42c6.979,0,12.632-5.656,12.632-12.631v-52.617c0-20.896-17-37.896-37.896-37.896H502.427
				c-20.894,0-37.896,16.999-37.896,37.896V542.75c0,20.896,17,37.896,37.896,37.896h279.579c20.895,0,37.896-16.999,37.896-37.896
				V355.567c0-6.977-5.653-12.632-12.631-12.632c-6.979,0-12.632,5.656-12.632,12.632V542.75c0,6.966-5.665,12.631-12.631,12.631
				H502.427c-6.966,0-12.632-5.665-12.632-12.631V263.172c0-6.966,5.666-12.631,12.632-12.631h279.579
				c6.966,0,12.632,5.666,12.632,12.631v52.619C794.638,322.766,800.294,328.42,807.269,328.42z"/>
			<path fill="#798096" d="M527.69,275.803c-6.978,0-12.631,5.656-12.631,12.631v229.053c0,6.977,5.653,12.632,12.631,12.632
				h229.054c6.978,0,12.631-5.656,12.631-12.632V288.435c0-6.977-5.654-12.631-12.631-12.631H527.69z M744.111,504.856H540.322
				V301.065h203.789V504.856L744.111,504.856z"/>
			<path fill="#798096" d="M642.217,472.139c39.78,0,72.143-32.362,72.143-72.141c0-39.779-32.362-72.139-72.143-72.139
				c-39.779,0-72.142,32.362-72.142,72.141C570.075,439.779,602.438,472.139,642.217,472.139z M642.217,353.123
				c25.851,0,46.879,21.03,46.879,46.877c0,25.85-21.03,46.877-46.879,46.877c-25.848,0-46.879-21.03-46.879-46.877
				C595.338,374.15,616.369,353.123,642.217,353.123z"/>
			<path fill="#798096" d="M1027.369,0h-90.371c-6.978,0-12.631,5.656-12.631,12.631v26.754c0,19.803-16.111,35.914-35.914,35.914
				s-35.914-16.111-35.914-35.914V12.631C852.539,5.655,846.886,0,839.908,0H454.755c-3.351,0-6.562,1.331-8.933,3.7
				L243.698,205.822c-2.367,2.369-3.698,5.582-3.698,8.931v572.614c0,6.977,5.655,12.633,12.631,12.633h148.816
				c6.978,0,12.631-5.656,12.631-12.631c0-6.977-5.654-12.632-12.631-12.632H265.263v-554.75L459.986,25.263h367.287v14.123
				c0,33.733,27.443,61.177,61.177,61.177c33.732,0,61.178-27.444,61.178-61.177V25.263h65.108v132.528h-45.302
				c-6.979,0-12.632,5.656-12.632,12.631v459.156c0,6.977,5.653,12.631,12.632,12.631h45.302v132.527H949.63v-14.124
				c0-33.732-27.444-61.177-61.177-61.177s-61.177,27.444-61.177,61.177v14.124H444.393c-6.979,0-12.632,5.656-12.632,12.631
				c0,6.977,5.655,12.631,12.632,12.631h395.514c6.979,0,12.631-5.656,12.631-12.631v-26.755c0-19.803,16.111-35.914,35.914-35.914
				c19.804,0,35.914,16.111,35.914,35.914v26.755c0,6.977,5.655,12.631,12.632,12.631h90.372c6.978,0,12.631-5.656,12.631-12.631
				V12.631C1040,5.656,1034.347,0,1027.369,0z M1014.737,616.947h-32.67V183.056h32.67V616.947z"/>
			<path fill="#798096" d="M290.236,714.873c0,20.586,16.749,37.335,37.334,37.335s37.333-16.749,37.333-37.335
				s-16.746-37.334-37.333-37.334S290.236,694.287,290.236,714.873z M327.57,702.805c6.655,0,12.069,5.414,12.069,12.07
				s-5.414,12.07-12.069,12.07c-6.656,0-12.07-5.414-12.07-12.07C315.5,708.217,320.914,702.805,327.57,702.805z"/>
		</g>
	</g>
</g>
</svg>
